<svg width="512" height="512" viewBox="0 0 512 512" fill="none" xmlns="http://www.w3.org/2000/svg">
<rect width="512" height="512" rx="13" fill="#DEE0D9"/>
<path d="M126.5 176C139.047 176 146.4 166.74 146.4 159.48C146.4 152.97 142.918 150.73 140.281 148.07C134.878 142.68 137.166 136 145.902 136L186.2 136L186.2 256L145.902 256C136.629 256 132.4 261.75 132.4 267.09C132.4 270.41 133.953 273.81 136.758 276.62C139.704 279.45 141.425 280.51 141.425 284.47C141.425 289.18 136.112 296 126.5 296C116.888 296 111.575 289.18 111.575 284.48C111.575 280.52 113.296 279.47 116.232 276.63C119.047 273.82 120.59 270.42 120.59 267.1C120.59 261.76 116.361 256.01 107.088 256.01L66.8 256.01L66.8 215.5C66.8 206.73 60.1733 204.42 54.7705 209.86C52.1238 212.51 49.9348 216 43.4374 216C36.2336 216 27 208.61 27 196C27 183.38 36.2336 176 43.4374 176C49.9348 176 52.1337 179.48 54.7705 182.13C60.1733 187.6 66.8 185.26 66.8 176.51L66.8 136L107.098 136C115.834 136 118.122 142.68 112.719 148.07C110.082 150.73 106.6 152.96 106.6 159.48C106.6 166.74 113.953 176 126.5 176ZM198.23 302.13C192.827 307.6 186.2 305.26 186.2 296.51L186.2 266L145.902 266C140.599 266 141.505 267.37 144.818 270.54C147.435 272.99 151.375 276.7 151.375 284.48C151.375 294.87 141.385 306 126.5 306C111.615 306 101.625 294.87 101.625 284.48C101.625 276.71 105.565 273 108.182 270.54C111.476 267.37 112.411 266 107.098 266L66.8 266L66.8 376L186.2 376L186.2 335.51C186.2 326.72 192.827 324.42 198.23 329.85C200.876 332.5 203.065 336 209.563 336C216.766 336 226 328.6 226 316C226 303.38 216.766 296 209.563 296C203.065 296 200.876 299.48 198.23 302.13Z" fill="#FF62A5"/>
<path d="M276.86 233.56V269.65H323.84V290.89H276.86V343H249.68V212.41H332.84V233.56H276.86ZM413.943 276.49H458.763V330.4C452.103 335.26 444.993 338.83 437.433 341.11C429.933 343.33 421.983 344.44 413.583 344.44C402.843 344.44 393.123 342.79 384.423 339.49C375.723 336.13 368.283 331.48 362.103 325.54C355.923 319.6 351.153 312.55 347.793 304.39C344.433 296.23 342.753 287.32 342.753 277.66C342.753 267.88 344.343 258.91 347.523 250.75C350.763 242.59 355.353 235.57 361.293 229.69C367.233 223.81 374.403 219.22 382.803 215.92C391.263 212.62 400.713 210.97 411.153 210.97C416.553 210.97 421.593 211.42 426.273 212.32C430.953 213.16 435.273 214.36 439.233 215.92C443.193 217.42 446.823 219.22 450.123 221.32C453.423 223.42 456.423 225.73 459.123 228.25L451.293 240.31C450.093 242.23 448.533 243.4 446.613 243.82C444.693 244.24 442.593 243.76 440.313 242.38C438.153 241.06 436.023 239.89 433.923 238.87C431.883 237.79 429.693 236.86 427.353 236.08C425.013 235.3 422.463 234.7 419.703 234.28C416.943 233.86 413.763 233.65 410.163 233.65C404.103 233.65 398.613 234.7 393.693 236.8C388.773 238.9 384.573 241.87 381.093 245.71C377.673 249.55 375.033 254.17 373.173 259.57C371.313 264.97 370.383 271 370.383 277.66C370.383 284.86 371.403 291.31 373.443 297.01C375.483 302.65 378.363 307.42 382.083 311.32C385.803 315.22 390.243 318.19 395.403 320.23C400.623 322.27 406.413 323.29 412.773 323.29C417.093 323.29 420.933 322.87 424.293 322.03C427.713 321.13 431.043 319.93 434.283 318.43V296.47H419.523C417.783 296.47 416.403 296.02 415.383 295.12C414.423 294.16 413.943 292.96 413.943 291.52V276.49Z" fill="#6B76FF"/>
</svg>
